HIERARCHY
ROOT Hips
{
	OFFSET	0.00	0.00	0.00
	CHANNELS 6 Xposition Yposition Zposition Zrotation Xrotation Yrotation
	JOINT LeftUpLeg
	{
		OFFSET	 0.126116	-0.014019	-0.065224
		CHANNELS 3 Zrotation Xrotation Yrotation
		JOINT LeftLeg
		{
			OFFSET	 0.000000	 0.000000	 0.569914
			CHANNELS 3 Zrotation Xrotation Yrotation
			JOINT LeftFoot
			{
				OFFSET	 0.000000	 0.000000	 0.544423
				CHANNELS 3 Zrotation Xrotation Yrotation
				JOINT LeftToeBase
				{
					OFFSET	 0.000000	 0.000000	 0.207117
					CHANNELS 3 Zrotation Xrotation Yrotation
					End Site
					{
						OFFSET	 0.000000	 0.000000	 0.207117
					}
				}
			}
		}
	}
	JOINT RightUpLeg
	{
		OFFSET	-0.124023	-0.008373	-0.065224
		CHANNELS 3 Zrotation Xrotation Yrotation
		JOINT RightLeg
		{
			OFFSET	 0.000000	 0.000000	 0.570047
			CHANNELS 3 Zrotation Xrotation Yrotation
			JOINT RightFoot
			{
				OFFSET	 0.000000	 0.000000	 0.544354
				CHANNELS 3 Zrotation Xrotation Yrotation
				JOINT RightToeBase
				{
					OFFSET	 0.000000	 0.000000	 0.207540
					CHANNELS 3 Zrotation Xrotation Yrotation
					End Site
					{
						OFFSET	 0.000000	 0.000000	 0.207540
					}
				}
			}
		}
	}
	JOINT Spine
	{
		OFFSET	 0.000184	-0.007763	 0.117403
		CHANNELS 3 Zrotation Xrotation Yrotation
		JOINT Spine1
		{
			OFFSET	 0.000000	 0.000000	 0.137269
			CHANNELS 3 Zrotation Xrotation Yrotation
			JOINT Spine2
			{
				OFFSET	 0.000000	 0.000000	 0.156879
				CHANNELS 3 Zrotation Xrotation Yrotation
				JOINT LeftShoulder
				{
					OFFSET	 0.080501	-0.002496	 0.160144
					CHANNELS 3 Zrotation Xrotation Yrotation
					JOINT LeftArm
					{
						OFFSET	 0.000000	 0.000000	 0.164363
						CHANNELS 3 Zrotation Xrotation Yrotation
						JOINT LeftForeArm
						{
							OFFSET	 0.000000	 0.000000	 0.364576
							CHANNELS 3 Zrotation Xrotation Yrotation
							JOINT LeftHand
							{
								OFFSET	 0.000000	 0.000000	 0.360812
								CHANNELS 3 Zrotation Xrotation Yrotation
								JOINT LeftHandIndex1
								{
									OFFSET	 0.000000	 0.000000	 0.086006
									CHANNELS 3 Zrotation Xrotation Yrotation
									JOINT LeftHandIndex2
									{
										OFFSET	 0.000000	 0.000000	 0.047236
										CHANNELS 3 Zrotation Xrotation Yrotation
										JOINT LeftHandIndex3
										{
											OFFSET	-0.004284	-0.000551	 0.038166
											CHANNELS 3 Zrotation Xrotation Yrotation
											End Site
											{
												OFFSET	-0.004284	-0.000551	 0.038166
											}
										}
									}
								}
							}
						}
					}
				}
				JOINT Neck
				{
					OFFSET	 0.000000	 0.000000	 0.176489
					CHANNELS 3 Zrotation Xrotation Yrotation
					JOINT Head
					{
						OFFSET	 0.000000	-0.001747	 0.077940
						CHANNELS 3 Zrotation Xrotation Yrotation
						End Site
						{
							OFFSET	 0.000000	-0.001747	 0.077940
						}
					}
				}
				JOINT RightShoulder
				{
					OFFSET	-0.080363	 0.000306	 0.159706
					CHANNELS 3 Zrotation Xrotation Yrotation
					JOINT RightArm
					{
						OFFSET	 0.000000	 0.000000	 0.164196
						CHANNELS 3 Zrotation Xrotation Yrotation
						JOINT RightForeArm
						{
							OFFSET	 0.000000	 0.000000	 0.365611
							CHANNELS 3 Zrotation Xrotation Yrotation
							JOINT RightHand
							{
								OFFSET	 0.000000	 0.000000	 0.360648
								CHANNELS 3 Zrotation Xrotation Yrotation
								JOINT RightHandIndex1
								{
									OFFSET	 0.000000	 0.000000	 0.069977
									CHANNELS 3 Zrotation Xrotation Yrotation
									JOINT RightHandIndex2
									{
										OFFSET	 0.000000	 0.000000	 0.052305
										CHANNELS 3 Zrotation Xrotation Yrotation
										JOINT RightHandIndex3
										{
											OFFSET	 0.009002	-0.000782	 0.042196
											CHANNELS 3 Zrotation Xrotation Yrotation
											End Site
											{
												OFFSET	 0.009002	-0.000782	 0.042196
											}
										}
									}
								}
							}
						}
					}
				}
			}
		}
	}
}
MOTION
Frames:    6
Frame Time: 0.03333334
-0.000280	 0.017191	 1.306981	-0.000741	 0.017968	-0.008261	-5.262157	-1.559838	 179.000600	 1.475205	-11.800540	-0.688647	-5.106503	 64.564630	-1.046143	-2.385833	 28.452760	 0.000004	 5.144087	-2.044404	-178.972700	-1.455404	-12.318080	 0.706551	 4.986903	 64.664500	 1.012332	 2.384658	 28.388730	 0.000004	-13.259790	 1.721755	 0.067257	 0.250768	 7.059199	 0.110903	-0.699077	-9.015531	-0.200730	-91.776220	 78.527470	-180.000000	 54.280860	 38.669430	-53.941240	-20.796550	 1.946144	-7.772128	-31.876490	-6.656833	-4.586770	-2.635965	 4.993658	 6.788941	-5.165319	 0.784187	 3.516649	-5.225038	 0.466231	 0.424329	-0.000002	-3.783157	-0.089647	-0.632277	 2.997867	 0.016531	 89.782200	 78.203900	 179.999900	 1.016463	 12.916550	 102.944000	-21.698500	 1.604767	 7.860458	 5.348407	-7.638835	-5.834056	 6.112037	 4.509576	-0.364401	 4.968462	 1.518543	-9.347576	 5.168945	 0.703820	 2.021906
-0.000302	 0.017144	 1.307785	-0.000878	 0.017986	-0.015465	-5.190598	-1.554017	 179.001400	 1.475412	-11.783360	-0.687615	-5.104608	 64.427510	-1.043774	-2.385833	 28.452760	 0.000004	 5.073479	-2.051471	-178.961600	-1.455253	-12.329840	 0.707246	 4.987025	 64.542280	 1.007908	 2.384658	 28.388730	 0.000004	-13.089700	 1.726303	 0.061926	 0.322425	 7.045417	 0.137749	-0.914535	-8.996184	-0.260197	-91.776140	 78.527470	 180.000000	 54.302320	 38.668190	-53.972490	-20.902700	 1.974506	-7.830545	-31.509600	-8.804789	-4.623517	-2.635965	 4.993658	 6.788941	-5.165319	 0.784187	 3.516649	-5.225038	 0.466231	 0.424329	-0.000002	-3.783157	-0.089647	-0.834139	 3.002736	 0.021849	 89.782150	 78.203900	 180.000000	 1.040380	 12.981010	 102.952900	-21.647170	 1.633719	 7.917908	 4.595156	-9.730291	-5.884371	 6.112037	 4.509576	-0.364401	 4.968462	 1.518543	-9.347576	 5.168945	 0.703820	 2.021906
-0.000323	 0.017086	 1.308692	-0.001003	 0.017908	-0.023974	-5.108455	-1.547463	 179.002800	 1.475650	-11.764080	-0.686459	-5.102302	 64.270390	-1.041126	-2.385833	 28.452760	 0.000004	 4.992380	-2.059851	-178.948700	-1.455073	-12.344090	 0.708088	 4.987045	 64.402460	 1.002876	 2.384658	 28.388730	 0.000004	-12.881910	 1.732938	 0.055921	 0.404052	 7.025171	 0.168866	-1.160234	-8.967723	-0.328013	-91.776120	 78.527490	 179.999900	 54.335060	 38.668180	-54.024510	-21.022850	 2.008113	-7.898284	-31.077690	-11.439900	-4.626813	-2.635965	 4.993658	 6.788941	-5.165319	 0.784187	 3.516649	-5.225038	 0.466231	 0.424329	-0.000002	-3.783157	-0.089647	-1.064512	 3.010023	 0.027955	 89.782160	 78.203890	 179.999900	 1.038194	 13.055120	 102.950900	-21.591630	 1.666345	 7.985464	 3.679752	-12.297130	-6.008192	 6.112037	 4.509576	-0.364401	 4.968462	 1.518543	-9.347576	 5.168945	 0.703820	 2.021906
-0.000336	 0.017032	 1.309469	-0.001099	 0.017737	-0.031552	-5.036381	-1.542147	 179.004100	 1.475842	-11.748300	-0.685511	-5.100342	 64.133110	-1.038709	-2.385833	 28.452760	 0.000004	 4.921201	-2.067410	-178.937300	-1.454908	-12.357220	 0.708865	 4.987007	 64.280110	 0.998499	 2.384658	 28.388730	 0.000004	-12.687660	 1.739990	 0.050698	 0.475080	 7.003607	 0.196322	-1.374235	-8.937312	-0.386987	-91.776200	 78.527490	-180.000000	 54.371970	 38.670380	-54.087800	-21.126520	 2.036952	-7.956063	-30.686020	-13.886050	-4.588764	-2.635965	 4.993658	 6.788941	-5.165319	 0.784187	 3.516649	-5.225038	 0.466231	 0.424329	-0.000002	-3.783157	-0.089647	-1.265338	 3.017957	 0.033320	 89.782090	 78.203900	 180.000000	 0.999679	 13.125340	 102.934400	-21.546740	 1.694601	 8.044544	 2.830621	-14.670070	-6.183646	 6.112037	 4.509576	-0.364401	 4.968462	 1.518543	-9.347576	 5.168945	 0.703820	 2.021906
-0.000340	 0.016970	 1.310198	-0.001161	 0.017483	-0.039297	-4.964575	-1.537407	 179.005700	 1.476018	-11.733880	-0.684647	-5.098411	 63.997040	-1.036204	-2.385833	 28.452760	 0.000004	 4.850251	-2.075416	-178.925900	-1.454726	-12.371490	 0.709712	 4.986990	 64.158870	 0.994052	 2.384658	 28.388730	 0.000004	-12.482430	 1.748152	 0.045586	 0.545144	 6.978621	 0.223917	-1.585559	-8.902053	-0.445181	-91.776180	 78.527430	-180.000000	 54.418340	 38.677820	-54.172170	-21.227400	 2.064465	-8.011177	-30.280200	-16.426210	-4.506533	-2.635965	 4.993658	 6.788941	-5.165319	 0.784187	 3.516649	-5.225038	 0.466231	 0.424329	-0.000002	-3.783157	-0.089647	-1.463879	 3.027248	 0.038669	 89.782140	 78.203900	 180.000000	 1.018802	 13.218050	 102.918500	-21.507980	 1.722598	 8.100409	 1.943001	-17.118360	-6.428817	 6.112037	 4.509576	-0.364401	 4.968462	 1.518543	-9.347576	 5.168945	 0.703820	 2.021906
-0.000338	 0.016900	 1.310909	-0.001208	 0.017127	-0.047402	-4.890909	-1.532895	 179.007600	 1.476187	-11.720040	-0.683815	-5.096433	 63.857940	-1.033595	-2.385833	 28.452760	 0.000004	 4.777416	-2.083968	-178.914100	-1.454530	-12.386960	 0.710627	 4.986903	 64.034870	 0.989503	 2.384658	 28.388730	 0.000004	-12.258910	 1.757680	 0.040410	 0.616235	 6.949443	 0.252383	-1.800225	-8.860831	-0.504163	-91.776130	 78.527490	 180.000000	 54.476300	 38.689310	-54.278390	-21.328270	 2.094023	-8.068919	-29.842880	-19.114230	-4.369688	-2.635965	 4.993658	 6.788941	-5.165319	 0.784187	 3.516649	-5.225038	 0.466231	 0.424329	-0.000002	-3.783157	-0.089647	-1.665696	 3.038066	 0.044161	 89.782070	 78.203900	-180.000000	 1.071675	 13.321550	 102.897000	-21.471360	 1.750367	 8.159877	 0.978338	-19.703660	-6.764105	 6.112037	 4.509576	-0.364401	 4.968462	 1.518543	-9.347576	 5.168945	 0.703820	 2.021906
